# xmcd
#
# Track frame offsets:
#	180
#	14836
#	31322
#	48768
#	65193
#	73345
#	90272
#	104565
#	117902
#	128732
#	151826
#	164907
#
# Disc length: 2392 seconds
# Revision: 0
# Processed by: cddbd v1.5.2PL0 Copyright (c) Steve Scherf et al.
# Submitted via: dBpowerAMP V12.0
#
DISCID=a909560c
DTITLE=Limited Edition - Love Is Here Again
DYEAR=1997
DGENRE=Bluegrass
TTITLE0=Lady of My Dreams
TTITLE1=Worried Man Blues
TTITLE2=Pan Handle Rag
TTITLE3=High Lonesome Sound
TTITLE4=People Get Ready
TTITLE5=Amie
TTITLE6=Carolina In The Pines
TTITLE7=Highway Forty Blues
TTITLE8=Gordon McGregor
TTITLE9=I'll Face Nobody's Record
TTITLE10=Love Is Here Again
TTITLE11=Sleepwalk
EXTD=
EXTT0=
EXTT1=
EXTT2=
EXTT3=
EXTT4=
EXTT5=
EXTT6=
EXTT7=
EXTT8=
EXTT9=
EXTT10=
EXTT11=
PLAYORDER=
